<mxfile host="app.diagrams.net" modified="2024-01-16T18:37:13.230Z" agent="Mozilla/5.0 (Windows NT 10.0; Win64; x64) AppleWebKit/537.36 (KHTML, like Gecko) Chrome/120.0.0.0 Safari/537.36" etag="AKOQyvSaTLY4Pr_kgJYI" version="22.1.19" type="device">
  <diagram name="Page-1" id="hwmNUqbyeQR-G01kFPI7">
    <mxGraphModel dx="1050" dy="1726" grid="1" gridSize="10" guides="1" tooltips="1" connect="1" arrows="1" fold="1" page="1" pageScale="1" pageWidth="827" pageHeight="1169" math="0" shadow="0">
      <root>
        <mxCell id="0" />
        <mxCell id="1" parent="0" />
        <mxCell id="MjUdU5jCpgxAGoxmFMyF-6" value="" style="endArrow=none;html=1;rounded=0;" edge="1" parent="1">
          <mxGeometry width="50" height="50" relative="1" as="geometry">
            <mxPoint x="430" y="1174.800048828125" as="sourcePoint" />
            <mxPoint x="430" y="-109.199951171875" as="targetPoint" />
          </mxGeometry>
        </mxCell>
        <mxCell id="MjUdU5jCpgxAGoxmFMyF-7" value="&lt;h2&gt;Receptionist/Administrator&lt;/h2&gt;" style="text;html=1;align=center;verticalAlign=middle;resizable=0;points=[];autosize=1;strokeColor=none;fillColor=none;" vertex="1" parent="1">
          <mxGeometry x="70" y="-55" width="250" height="60" as="geometry" />
        </mxCell>
        <mxCell id="MjUdU5jCpgxAGoxmFMyF-8" value="&lt;h2&gt;Hotel Administration System&lt;/h2&gt;" style="text;html=1;align=center;verticalAlign=middle;resizable=0;points=[];autosize=1;strokeColor=none;fillColor=none;" vertex="1" parent="1">
          <mxGeometry x="490" y="-55" width="270" height="60" as="geometry" />
        </mxCell>
        <mxCell id="MjUdU5jCpgxAGoxmFMyF-14" style="edgeStyle=orthogonalEdgeStyle;rounded=0;orthogonalLoop=1;jettySize=auto;html=1;exitX=0.5;exitY=1;exitDx=0;exitDy=0;" edge="1" parent="1" source="MjUdU5jCpgxAGoxmFMyF-9">
          <mxGeometry relative="1" as="geometry">
            <mxPoint x="190" y="60" as="targetPoint" />
          </mxGeometry>
        </mxCell>
        <mxCell id="MjUdU5jCpgxAGoxmFMyF-9" value="" style="ellipse;whiteSpace=wrap;html=1;aspect=fixed;fillColor=#121111;" vertex="1" parent="1">
          <mxGeometry x="180" y="5" width="20" height="20" as="geometry" />
        </mxCell>
        <mxCell id="MjUdU5jCpgxAGoxmFMyF-18" style="edgeStyle=orthogonalEdgeStyle;rounded=0;orthogonalLoop=1;jettySize=auto;html=1;exitX=1;exitY=0.5;exitDx=0;exitDy=0;" edge="1" parent="1" source="MjUdU5jCpgxAGoxmFMyF-15">
          <mxGeometry relative="1" as="geometry">
            <mxPoint x="480" y="120" as="targetPoint" />
          </mxGeometry>
        </mxCell>
        <mxCell id="MjUdU5jCpgxAGoxmFMyF-15" value="enterDate+Duration+&lt;br&gt;Room Type" style="html=1;whiteSpace=wrap;sketch=1;curveFitting=1;jiggle=2;shadow=1;" vertex="1" parent="1">
          <mxGeometry x="130" y="70" width="120" height="50" as="geometry" />
        </mxCell>
        <mxCell id="MjUdU5jCpgxAGoxmFMyF-21" style="edgeStyle=orthogonalEdgeStyle;rounded=0;orthogonalLoop=1;jettySize=auto;html=1;exitX=0.5;exitY=1;exitDx=0;exitDy=0;" edge="1" parent="1" source="MjUdU5jCpgxAGoxmFMyF-16">
          <mxGeometry relative="1" as="geometry">
            <mxPoint x="570" y="80" as="targetPoint" />
          </mxGeometry>
        </mxCell>
        <mxCell id="MjUdU5jCpgxAGoxmFMyF-16" value="Reservation" style="html=1;whiteSpace=wrap;rounded=0;glass=0;sketch=1;curveFitting=1;jiggle=2;shadow=1;" vertex="1" parent="1">
          <mxGeometry x="700" y="10" width="110" height="50" as="geometry" />
        </mxCell>
        <mxCell id="MjUdU5jCpgxAGoxmFMyF-22" style="edgeStyle=orthogonalEdgeStyle;rounded=0;orthogonalLoop=1;jettySize=auto;html=1;exitX=0.5;exitY=1;exitDx=0;exitDy=0;" edge="1" parent="1" source="MjUdU5jCpgxAGoxmFMyF-17" target="MjUdU5jCpgxAGoxmFMyF-23">
          <mxGeometry relative="1" as="geometry">
            <mxPoint x="545" y="220" as="targetPoint" />
          </mxGeometry>
        </mxCell>
        <mxCell id="MjUdU5jCpgxAGoxmFMyF-17" value="checkRoom&lt;br&gt;Availability" style="html=1;whiteSpace=wrap;sketch=1;curveFitting=1;jiggle=2;shadow=1;" vertex="1" parent="1">
          <mxGeometry x="490" y="90" width="110" height="50" as="geometry" />
        </mxCell>
        <mxCell id="MjUdU5jCpgxAGoxmFMyF-31" style="edgeStyle=orthogonalEdgeStyle;rounded=0;orthogonalLoop=1;jettySize=auto;html=1;exitX=0.75;exitY=1;exitDx=0;exitDy=0;" edge="1" parent="1" source="MjUdU5jCpgxAGoxmFMyF-19" target="MjUdU5jCpgxAGoxmFMyF-29">
          <mxGeometry relative="1" as="geometry" />
        </mxCell>
        <mxCell id="MjUdU5jCpgxAGoxmFMyF-19" value="enterCustomerName+&lt;br&gt;CreditCardNumber" style="html=1;whiteSpace=wrap;sketch=1;curveFitting=1;jiggle=2;shadow=1;" vertex="1" parent="1">
          <mxGeometry x="110" y="208" width="210" height="50" as="geometry" />
        </mxCell>
        <mxCell id="MjUdU5jCpgxAGoxmFMyF-24" style="edgeStyle=orthogonalEdgeStyle;rounded=0;orthogonalLoop=1;jettySize=auto;html=1;exitX=1;exitY=0.5;exitDx=0;exitDy=0;exitPerimeter=0;" edge="1" parent="1" source="MjUdU5jCpgxAGoxmFMyF-23" target="MjUdU5jCpgxAGoxmFMyF-25">
          <mxGeometry relative="1" as="geometry">
            <mxPoint x="740" y="235" as="targetPoint" />
          </mxGeometry>
        </mxCell>
        <mxCell id="MjUdU5jCpgxAGoxmFMyF-28" style="edgeStyle=orthogonalEdgeStyle;rounded=0;orthogonalLoop=1;jettySize=auto;html=1;" edge="1" parent="1" source="MjUdU5jCpgxAGoxmFMyF-23">
          <mxGeometry relative="1" as="geometry">
            <mxPoint x="330" y="235" as="targetPoint" />
          </mxGeometry>
        </mxCell>
        <mxCell id="MjUdU5jCpgxAGoxmFMyF-23" value="" style="strokeWidth=2;html=1;shape=mxgraph.flowchart.decision;whiteSpace=wrap;" vertex="1" parent="1">
          <mxGeometry x="526.25" y="220" width="37.5" height="30" as="geometry" />
        </mxCell>
        <mxCell id="MjUdU5jCpgxAGoxmFMyF-25" value="" style="ellipse;html=1;shape=endState;fillColor=#000000;strokeColor=#ff0000;" vertex="1" parent="1">
          <mxGeometry x="725" y="220" width="30" height="30" as="geometry" />
        </mxCell>
        <mxCell id="MjUdU5jCpgxAGoxmFMyF-26" value="&amp;nbsp; &amp;nbsp; &amp;nbsp; &amp;nbsp; &amp;nbsp; &amp;nbsp; &amp;nbsp; &amp;nbsp; &amp;nbsp; [Not Available]" style="text;html=1;align=center;verticalAlign=middle;resizable=0;points=[];autosize=1;strokeColor=none;fillColor=none;" vertex="1" parent="1">
          <mxGeometry x="530" y="208" width="160" height="30" as="geometry" />
        </mxCell>
        <mxCell id="MjUdU5jCpgxAGoxmFMyF-35" style="edgeStyle=orthogonalEdgeStyle;rounded=0;orthogonalLoop=1;jettySize=auto;html=1;exitX=0.5;exitY=1;exitDx=0;exitDy=0;" edge="1" parent="1" source="MjUdU5jCpgxAGoxmFMyF-29" target="MjUdU5jCpgxAGoxmFMyF-36">
          <mxGeometry relative="1" as="geometry">
            <mxPoint x="595" y="440" as="targetPoint" />
          </mxGeometry>
        </mxCell>
        <mxCell id="MjUdU5jCpgxAGoxmFMyF-29" value="check Customer" style="html=1;whiteSpace=wrap;sketch=1;curveFitting=1;jiggle=2;shadow=1;" vertex="1" parent="1">
          <mxGeometry x="540" y="360" width="110" height="50" as="geometry" />
        </mxCell>
        <mxCell id="MjUdU5jCpgxAGoxmFMyF-34" style="edgeStyle=orthogonalEdgeStyle;rounded=0;orthogonalLoop=1;jettySize=auto;html=1;exitX=0.5;exitY=1;exitDx=0;exitDy=0;entryX=1;entryY=0.75;entryDx=0;entryDy=0;" edge="1" parent="1" source="MjUdU5jCpgxAGoxmFMyF-32" target="MjUdU5jCpgxAGoxmFMyF-29">
          <mxGeometry relative="1" as="geometry" />
        </mxCell>
        <mxCell id="MjUdU5jCpgxAGoxmFMyF-32" value="Customer" style="html=1;whiteSpace=wrap;sketch=1;curveFitting=1;jiggle=2;shadow=1;" vertex="1" parent="1">
          <mxGeometry x="730" y="320" width="70" height="30" as="geometry" />
        </mxCell>
        <mxCell id="MjUdU5jCpgxAGoxmFMyF-37" style="edgeStyle=orthogonalEdgeStyle;rounded=0;orthogonalLoop=1;jettySize=auto;html=1;" edge="1" parent="1" source="MjUdU5jCpgxAGoxmFMyF-36">
          <mxGeometry relative="1" as="geometry">
            <mxPoint x="595" y="520" as="targetPoint" />
          </mxGeometry>
        </mxCell>
        <mxCell id="MjUdU5jCpgxAGoxmFMyF-63" style="edgeStyle=orthogonalEdgeStyle;rounded=0;orthogonalLoop=1;jettySize=auto;html=1;entryX=1;entryY=0;entryDx=0;entryDy=0;" edge="1" parent="1" source="MjUdU5jCpgxAGoxmFMyF-36" target="MjUdU5jCpgxAGoxmFMyF-60">
          <mxGeometry relative="1" as="geometry" />
        </mxCell>
        <mxCell id="MjUdU5jCpgxAGoxmFMyF-36" value="" style="strokeWidth=2;html=1;shape=mxgraph.flowchart.decision;whiteSpace=wrap;" vertex="1" parent="1">
          <mxGeometry x="577.5" y="460" width="35" height="30" as="geometry" />
        </mxCell>
        <mxCell id="MjUdU5jCpgxAGoxmFMyF-38" value="new" style="text;html=1;align=center;verticalAlign=middle;resizable=0;points=[];autosize=1;strokeColor=none;fillColor=none;" vertex="1" parent="1">
          <mxGeometry x="590" y="480" width="50" height="30" as="geometry" />
        </mxCell>
        <mxCell id="MjUdU5jCpgxAGoxmFMyF-40" style="edgeStyle=orthogonalEdgeStyle;rounded=0;orthogonalLoop=1;jettySize=auto;html=1;" edge="1" parent="1" source="MjUdU5jCpgxAGoxmFMyF-39" target="MjUdU5jCpgxAGoxmFMyF-41">
          <mxGeometry relative="1" as="geometry">
            <mxPoint x="595" y="620" as="targetPoint" />
          </mxGeometry>
        </mxCell>
        <mxCell id="MjUdU5jCpgxAGoxmFMyF-67" style="edgeStyle=orthogonalEdgeStyle;rounded=0;orthogonalLoop=1;jettySize=auto;html=1;entryX=0.5;entryY=0;entryDx=0;entryDy=0;" edge="1" parent="1" source="MjUdU5jCpgxAGoxmFMyF-39" target="MjUdU5jCpgxAGoxmFMyF-66">
          <mxGeometry relative="1" as="geometry" />
        </mxCell>
        <mxCell id="MjUdU5jCpgxAGoxmFMyF-39" value="addCustomer" style="html=1;whiteSpace=wrap;sketch=1;curveFitting=1;jiggle=2;shadow=1;" vertex="1" parent="1">
          <mxGeometry x="540" y="520" width="110" height="30" as="geometry" />
        </mxCell>
        <mxCell id="MjUdU5jCpgxAGoxmFMyF-54" style="edgeStyle=orthogonalEdgeStyle;rounded=0;orthogonalLoop=1;jettySize=auto;html=1;exitX=0.75;exitY=1;exitDx=0;exitDy=0;entryX=0.25;entryY=0;entryDx=0;entryDy=0;" edge="1" parent="1" source="MjUdU5jCpgxAGoxmFMyF-41" target="MjUdU5jCpgxAGoxmFMyF-49">
          <mxGeometry relative="1" as="geometry" />
        </mxCell>
        <mxCell id="MjUdU5jCpgxAGoxmFMyF-70" style="edgeStyle=orthogonalEdgeStyle;rounded=0;orthogonalLoop=1;jettySize=auto;html=1;" edge="1" parent="1" source="MjUdU5jCpgxAGoxmFMyF-41">
          <mxGeometry relative="1" as="geometry">
            <mxPoint x="595" y="730" as="targetPoint" />
          </mxGeometry>
        </mxCell>
        <mxCell id="MjUdU5jCpgxAGoxmFMyF-41" value="addReservation" style="html=1;whiteSpace=wrap;sketch=1;curveFitting=1;jiggle=2;shadow=1;" vertex="1" parent="1">
          <mxGeometry x="540" y="600" width="110" height="25" as="geometry" />
        </mxCell>
        <mxCell id="MjUdU5jCpgxAGoxmFMyF-44" value="" style="ellipse;html=1;shape=endState;fillColor=#000000;strokeColor=#ff0000;" vertex="1" parent="1">
          <mxGeometry x="580" y="730" width="30" height="30" as="geometry" />
        </mxCell>
        <mxCell id="MjUdU5jCpgxAGoxmFMyF-49" value="new:&lt;br&gt;Reservation" style="html=1;whiteSpace=wrap;sketch=1;curveFitting=1;jiggle=2;shadow=1;" vertex="1" parent="1">
          <mxGeometry x="700" y="720" width="110" height="50" as="geometry" />
        </mxCell>
        <mxCell id="MjUdU5jCpgxAGoxmFMyF-60" value="" style="shape=partialRectangle;whiteSpace=wrap;html=1;top=0;left=0;fillColor=none;" vertex="1" parent="1">
          <mxGeometry x="660" y="560" width="120" height="60" as="geometry" />
        </mxCell>
        <mxCell id="MjUdU5jCpgxAGoxmFMyF-66" value="new:Customer" style="html=1;whiteSpace=wrap;sketch=1;curveFitting=1;jiggle=2;shadow=1;" vertex="1" parent="1">
          <mxGeometry x="440" y="660" width="90" height="30" as="geometry" />
        </mxCell>
      </root>
    </mxGraphModel>
  </diagram>
</mxfile>
